<svg width="80" height="80" viewBox="0 0 80 80" fill="none" xmlns="http://www.w3.org/2000/svg">
<path d="M70 24.5101V55.49C70 56.2163 69.6063 56.8853 68.9713 57.2383L40.9713 72.7937C40.3673 73.1293 39.6327 73.1293 39.0287 72.7937L11.0287 57.2383C10.3938 56.8853 10 56.2163 10 55.49L9.99993 24.5101C9.99993 23.7838 10.3937 23.1146 11.0287 22.7618L39.0287 7.20626C39.6327 6.8707 40.3673 6.8707 40.9713 7.20626L68.9713 22.7618C69.606 23.1146 70 23.7838 70 24.5101Z" stroke="white" stroke-width="1.5" stroke-linecap="round" stroke-linejoin="round"/>
<path d="M11.7615 24.3119L39.0287 39.4603C39.6327 39.796 40.3673 39.796 40.9713 39.4603L68.3333 24.2592" stroke="white" stroke-width="1.5" stroke-linecap="round" stroke-linejoin="round"/>
<path d="M40 70V40" stroke="white" stroke-width="1.5" stroke-linecap="round" stroke-linejoin="round"/>
<path d="M38.9713 39.4283L12.9713 24.984C11.6382 24.2435 10 25.2074 10 26.7324V55.49C10 56.2163 10.3938 56.8853 11.0287 57.2383L37.0287 71.6827C38.3617 72.4233 40 71.4593 40 69.9343V41.1767C40 40.4503 39.6063 39.7813 38.9713 39.4283Z" fill="white" stroke="white" stroke-width="1.5" stroke-linejoin="round"/>
</svg>