<svg width="80" height="80" viewBox="0 0 80 80" fill="none" xmlns="http://www.w3.org/2000/svg">
<path d="M23.3333 60V56.6667C23.3333 47.462 30.7953 40 40 40C49.2047 40 56.6667 47.462 56.6667 56.6667V60" stroke="white" stroke-width="1.5" stroke-linecap="round"/>
<path d="M40 40C45.523 40 50 35.523 50 30C50 24.4772 45.523 20 40 20C34.477 20 30 24.4772 30 30C30 35.523 34.477 40 40 40Z" stroke="white" stroke-width="1.5" stroke-linecap="round" stroke-linejoin="round"/>
<path d="M40 73.3334C58.4095 73.3334 73.3333 58.4095 73.3333 40C73.3333 21.5905 58.4095 6.66669 40 6.66669C21.5905 6.66669 6.66666 21.5905 6.66666 40C6.66666 58.4095 21.5905 73.3334 40 73.3334Z" stroke="white" stroke-width="1.5"/>
</svg>